<svg width="1920" height="1080" viewBox="0 0 1920 1080" fill="none" xmlns="http://www.w3.org/2000/svg">
<g clip-path="url(#clip0_1_974)">
<rect width="1920" height="1080" fill="#F3F1E9"/>
<path d="M1442.83 305.455C1317.43 241.108 1243.36 75.0072 1222 0H1920V1105H1161C1390 839.5 1408.08 1036.06 1574.09 780.394C1740.09 524.731 1599.57 385.888 1442.83 305.455Z" fill="#BB7D0D"/>
<circle cx="1721.01" cy="175.401" r="3.0089" transform="rotate(-90 1721.01 175.401)" fill="#F3F1E9"/>
<circle cx="1721.01" cy="131.27" r="3.0089" transform="rotate(-90 1721.01 131.27)" fill="#F3F1E9"/>
<circle cx="1721.01" cy="87.1397" r="3.0089" transform="rotate(-90 1721.01 87.1397)" fill="#F3F1E9"/>
<circle cx="1721.01" cy="43.0089" r="3.0089" transform="rotate(-90 1721.01 43.0089)" fill="#F3F1E9"/>
<circle cx="1765.14" cy="175.401" r="3.0089" transform="rotate(-90 1765.14 175.401)" fill="#F3F1E9"/>
<circle cx="1765.14" cy="131.27" r="3.0089" transform="rotate(-90 1765.14 131.27)" fill="#F3F1E9"/>
<circle cx="1765.14" cy="87.1397" r="3.0089" transform="rotate(-90 1765.14 87.1397)" fill="#F3F1E9"/>
<circle cx="1765.14" cy="43.0089" r="3.0089" transform="rotate(-90 1765.14 43.0089)" fill="#F3F1E9"/>
<circle cx="1809.27" cy="175.401" r="3.0089" transform="rotate(-90 1809.27 175.401)" fill="#F3F1E9"/>
<circle cx="1809.27" cy="131.27" r="3.0089" transform="rotate(-90 1809.27 131.27)" fill="#F3F1E9"/>
<circle cx="1809.27" cy="87.1397" r="3.0089" transform="rotate(-90 1809.27 87.1397)" fill="#F3F1E9"/>
<circle cx="1809.27" cy="43.0089" r="3.0089" transform="rotate(-90 1809.27 43.0089)" fill="#F3F1E9"/>
<circle cx="1853.4" cy="175.401" r="3.0089" transform="rotate(-90 1853.4 175.401)" fill="#F3F1E9"/>
<circle cx="1853.4" cy="131.27" r="3.0089" transform="rotate(-90 1853.4 131.27)" fill="#F3F1E9"/>
<circle cx="1853.4" cy="87.1397" r="3.0089" transform="rotate(-90 1853.4 87.1397)" fill="#F3F1E9"/>
<circle cx="1853.4" cy="43.0089" r="3.0089" transform="rotate(-90 1853.4 43.0089)" fill="#F3F1E9"/>
<circle cx="1897.53" cy="175.401" r="3.0089" transform="rotate(-90 1897.53 175.401)" fill="#F3F1E9"/>
<circle cx="1897.53" cy="131.27" r="3.0089" transform="rotate(-90 1897.53 131.27)" fill="#F3F1E9"/>
<circle cx="1897.53" cy="87.1397" r="3.0089" transform="rotate(-90 1897.53 87.1397)" fill="#F3F1E9"/>
<circle cx="1897.53" cy="43.0089" r="3.0089" transform="rotate(-90 1897.53 43.0089)" fill="#F3F1E9"/>
<path d="M-7.51823 313.644C-8.1862 295.605 -8.13446 278.903 -7.51823 264V313.644C-1.91518 464.955 54.3279 710.319 252.82 776.935C530.514 870.131 1134.32 709.35 1296 1080H-7.51823V313.644Z" fill="#8F330B"/>
<path d="M1496 0C1535.5 125.833 1646.6 384.4 1775 412C1903.4 439.6 1924.5 545.833 1919 595.5" stroke="#4E4036" stroke-width="5"/>
</g>
<defs>
<clipPath id="clip0_1_974">
<rect width="1920" height="1080" fill="white"/>
</clipPath>
</defs>
</svg>
