<svg width="1920" height="1080" viewBox="0 0 1920 1080" fill="none" xmlns="http://www.w3.org/2000/svg">
<g clip-path="url(#clip0_1_548)">
<rect width="1920" height="1080" fill="#BB7D0D"/>
<g opacity="0.05" clip-path="url(#clip1_1_548)">
<path d="M844.56 1080C839.25 1070.27 834.56 1060.14 828.56 1050.87C805.56 1015.44 775.36 986.11 746.56 955.6C728.18 936.11 713.84 914.35 709.27 887.39C704.61 859.85 700.78 832.16 695.84 804.67C692.72 787.34 687.54 770.38 684.58 753.02C681.94 737.53 678.68 722.31 672.94 707.7C664.94 687.35 653.68 669.02 638.06 653.54C626.529 642.224 613.862 632.127 600.26 623.41C572.87 605.6 549.26 583.18 527.21 559.31C509.484 540.076 489.805 522.74 468.49 507.58C457.701 499.756 447.454 491.209 437.82 482C388.76 436 340.05 389.55 290.99 343.5C267.376 321.579 247.75 295.721 232.99 267.08C211.83 225.75 189.99 184.75 168.66 143.5C153.66 114.5 136.95 87 113.44 63.84C93.7393 44.2138 75.8532 22.8469 60 -1.95503e-05H109C112.07 5.62998 114.7 11.56 118.3 16.83C130.53 34.69 143.78 51.89 155.36 70.15C167.28 88.96 177.66 108.74 188.78 128.06C206.49 158.79 223.78 189.77 242.15 220.12C258.62 247.38 278.69 271.83 304.34 291.12C320.58 303.32 337.34 314.82 353.6 327C388.26 352.94 422.6 379.27 457.32 405.17C495.41 433.6 531.38 463.93 557.18 504.82C569.122 524.031 585.505 540.092 604.95 551.65C614.78 557.47 623.46 564.65 630.26 573.98C631.059 574.739 631.937 575.409 632.88 575.98C632.751 575.061 632.557 574.152 632.3 573.26C624.08 553.8 617.36 533.52 607.24 515.11C592.65 488.59 576.12 463.11 559.42 437.82C544.65 415.46 527.96 394.37 513.13 372.05C499.13 350.98 483.63 331.38 465.01 314.2C455.47 305.4 445.81 296.55 437.46 286.67C419.66 265.59 398.39 249.07 374.46 235.86C348.269 221.68 325.3 202.228 307 178.73C287.28 153.2 269.05 126.49 254 97.73C240.723 72.6381 223.282 49.9828 202.42 30.73C200.47 28.9 197.62 28.03 195.18 26.73L194.18 28.07C194.97 29.45 195.71 30.86 196.55 32.21C210.554 54.5004 222.353 78.1018 231.78 102.68C237.67 118.15 244.66 133.5 253.33 147.57C275.05 182.82 302.21 213.95 333.28 241.09C358.28 262.97 385.28 282.65 411.83 302.78C427.53 314.69 442.74 327.02 455.69 341.94C463.07 350.44 469.74 359.45 473.92 370.15C470.973 367.79 468.26 365.151 465.82 362.27C455.664 350.319 443.953 339.782 431 330.94C418 321.94 404.67 313.44 391.52 304.67C370.187 290.457 348.853 276.23 327.52 261.99C309.015 249.668 293.5 233.363 282.11 214.27C270.11 194.5 257.63 174.97 244.21 156.15C225.82 130.35 207 104.88 193.62 76C185.25 58 174.62 41.84 160.25 27.86C151.62 19.45 144.65 9.33998 136.93 -0.0100195H223.88C229.48 6.10998 234.88 12.41 240.7 18.32C256.117 33.7803 269.621 51.0373 280.92 69.72C293.87 91.4 303.22 115.21 319.8 134.77C334.21 151.77 348.24 169.09 362.48 186.24C363.738 187.586 365.074 188.859 366.48 190.05C367.07 188.75 367 188.05 366.69 187.58C358.99 174.93 351.96 161.8 343.4 149.76C324.65 123.39 306.88 96.52 292.6 67.38C288.23 58.46 282.32 50.26 276.76 41.98C267.29 27.88 257.54 13.98 247.91 -0.0200195H311.91C318.74 15.29 325.64 30.58 332.4 45.98C338 58.85 343 72.08 349.27 84.71C354.2 94.71 360.68 103.87 366.21 113.55C381.42 140.14 396.21 167.01 411.8 193.34C418.363 204.161 425.815 214.416 434.08 224C446.77 239 460.66 252.88 473.47 267.74C496.64 294.62 519.36 321.86 538.32 352.01C548.95 368.92 560.26 385.41 570.86 402.33C579.86 416.69 588.75 431.16 596.86 446.05C605.45 461.83 613.04 478.15 621.08 494.23C621.87 495.81 622.8 497.33 623.66 498.87C623.917 498.501 624.097 498.084 624.189 497.645C624.282 497.205 624.286 496.751 624.2 496.31C621.2 469.18 618.84 442.06 618.73 414.69C618.64 391.69 614.01 369.13 604 348.42C597.1 334.14 587.75 320.99 579 307.69C554.51 270.78 525.72 236.88 504 198C488.42 170.11 470.15 143.68 455.35 115.41C434.47 75.5 410.49 37.57 385.8 -1.95503e-05H416.8C424.5 11.23 432.41 22.33 439.86 33.72C453.69 54.9 467.12 76.36 481 97.52C497.8 123.12 516.58 147.6 531.43 174.28C549.56 206.83 570.43 236.93 595.36 264.48C619.5 291.12 636.16 322.14 647.86 356.14C660.09 391.69 673.67 426.78 686.25 462.21C693.86 483.68 701.68 505.15 707.62 527.11C715.35 555.65 718.12 584.85 716.74 614.63C715.64 638.36 716.45 662.25 717.63 686.01C718.45 702.43 721.84 718.69 723.19 735.1C725.031 757.899 731.254 780.129 741.52 800.57C759 835.32 778.82 868.93 798 902.83C810.19 924.43 823.31 945.51 835.3 967.21C839.757 975.196 843.025 983.79 845 992.72C848.81 1010.62 852 1028.41 861.33 1044.72C867.72 1055.92 872.22 1068.21 877.56 1080.01L844.56 1080Z" fill="#F3F1E9"/>
<path d="M1490.22 1080C1476.53 1040.1 1468.22 998.79 1458.31 957.9C1456.02 948.536 1452.55 939.499 1448 931C1432.5 902.1 1416.18 873.64 1400.42 844.88C1388.58 823.27 1377.86 801.02 1365.26 779.88C1353.42 760.02 1339.19 741.61 1327.04 721.88C1300.51 678.95 1274.34 635.72 1255.42 588.76C1247.24 568.45 1240.91 547.34 1234.68 526.32C1230.76 513.1 1234.2 499.58 1235.68 486.18C1238.68 460.25 1237.32 434.99 1226.83 410.29C1214.23 380.62 1203.34 350.23 1191.51 320.22C1189.95 316.219 1187.75 312.497 1185 309.2C1166.91 288.02 1155.42 263.03 1143.76 238.2C1138.62 226.837 1132.3 216.044 1124.91 206C1103 177.317 1087.58 144.222 1079.7 109C1078.47 103.48 1077.09 98 1075.83 92.5C1075.73 92.07 1075.97 91.56 1076.35 89.44C1078.35 93.44 1079.9 96.26 1081.21 99.15C1087.98 114.15 1094.01 129.51 1101.58 144.08C1115.79 171.42 1137.83 191.9 1162.09 210.2C1163.55 211.3 1165.09 212.34 1166.43 213.55C1189.76 234.2 1212.55 255.24 1231.37 280.42C1241.89 294.5 1254.37 307.18 1266.48 320C1294.95 350.16 1323.59 380.16 1352.42 410C1379.93 438.55 1407.85 466.7 1435.23 495.36C1476.56 538.63 1511.71 586.76 1545.42 636.04C1560.08 657.49 1574.71 679.04 1590.76 699.43C1603.9 716.13 1619.02 731.3 1633.46 746.96C1665.21 781.39 1696.38 816.37 1723.11 854.87C1744.45 885.6 1759.58 919.87 1774.76 953.95C1786.14 979.48 1797.76 1005.06 1803.15 1032.7C1806.21 1048.34 1807.8 1064.26 1810.06 1080.06H1735.06C1734.31 1078.41 1733.68 1076.71 1733.17 1074.97C1727.5 1050.34 1722.05 1025.65 1716.17 1001.05C1711.73 982.28 1708.59 962.96 1701.79 945.05C1683.04 895.75 1660.07 848.26 1629.12 805.39C1604.67 771.53 1578.22 739.08 1552.12 706.39C1529.59 678.14 1505.6 651.09 1485.46 620.92C1467.07 593.36 1447.74 566.42 1428.65 539.33C1404.81 505.5 1374.92 477.08 1346.04 447.81C1323.83 425.3 1299.32 405.02 1280.68 379.1C1275.68 372.1 1269.87 365.56 1264.48 358.78C1263.48 357.45 1262.55 355.97 1261.59 354.56L1259.99 355.89C1260.75 358.375 1261.69 360.801 1262.8 363.15C1269.53 375.21 1276.06 387.41 1283.31 399.15C1312.67 446.7 1345.77 491.65 1380.76 535.15C1406.11 566.536 1427.36 601.019 1444 637.77C1449.15 649.14 1455 660.18 1460.41 671.45C1474.2 700.23 1494.61 724.59 1512.9 750.37C1543.9 794.11 1574.68 838.06 1605.9 881.65C1629.39 914.43 1650.67 948.52 1663.39 986.93C1673.53 1017.54 1681.28 1048.93 1690.09 1080H1609.09C1608.6 1078.07 1608.22 1076.1 1607.59 1074.23C1593.44 1032.46 1579.79 990.52 1564.93 949.01C1552.93 915.6 1538.73 883.07 1520.17 852.67C1500.02 819.67 1478.57 787.6 1453.37 758.11C1442.51 745.476 1432.32 732.281 1422.84 718.58C1402.07 688.37 1392.32 653.36 1381.6 618.92C1377.37 605.31 1375.36 591.03 1372 577.13C1365.82 551.54 1351.14 530.13 1337.14 508.53C1321.01 483.69 1303.31 459.87 1286.73 435.31C1269.38 409.63 1252.97 383.37 1241.51 354.37C1240.77 352.695 1239.91 351.074 1238.94 349.52C1229.51 333.06 1220.07 316.603 1210.62 300.15C1209.8 298.72 1208.92 297.3 1208.07 295.88L1206.93 296.5C1210.18 304.44 1213.14 312.5 1216.72 320.32C1230.86 351.01 1245.22 381.59 1259.45 412.24C1274.08 443.76 1284.15 476.37 1285.32 511.53C1285.89 528.94 1286.69 546.65 1292.78 563.23C1301.89 588.06 1311.06 612.93 1321.66 637.14C1332.38 661.66 1343.5 686.19 1356.96 709.25C1369.59 730.89 1385.69 750.47 1399.96 771.19C1424.41 806.75 1447.41 843.19 1468.51 880.89C1482.75 906.33 1497.15 931.61 1507.38 959.05C1522.44 999.44 1537.88 1039.69 1553.15 1080.05L1490.22 1080Z" fill="#F3F1E9"/>
<path d="M1884 1080C1849.16 978.79 1804.13 882.27 1752.29 788.7C1726.29 741.7 1701.84 693.7 1678.03 645.5C1661.53 612.138 1650.9 576.182 1646.61 539.21C1645.29 527.97 1644.51 516.67 1643.42 505.41C1643.33 503.586 1642.94 501.79 1642.27 500.09C1635.41 485.09 1628.35 470.09 1616.57 458.15C1612.31 453.83 1607.18 450.31 1602.13 446.88C1595.8 442.6 1588.94 439.07 1582.66 434.72C1562.55 420.72 1542.59 406.61 1522.59 392.49C1500.1 376.807 1481.04 356.696 1466.59 333.39C1452.06 309.85 1433.42 289.75 1414.05 270.17C1394.96 250.88 1375.47 231.81 1358.25 210.92C1346.42 196.55 1337.91 179.38 1328.36 163.2C1317.03 143.993 1305.95 124.623 1295.14 105.09C1284.34 85.61 1269.05 69.81 1254.21 53.6C1239.59 37.6 1225.01 21.6 1210.46 5.60001C1208.91 3.89001 1207.69 1.88001 1206.31 0.0100098H1283.31C1288.37 6.01001 1293.66 11.76 1298.45 17.93C1326.89 54.61 1348.24 95.46 1368.33 137.07C1375.85 152.64 1382.81 168.78 1392.48 182.98C1416.48 218.2 1441.7 252.58 1466.8 287.04C1478.07 302.51 1489.7 317.78 1502.09 332.36C1524.15 358.36 1551.25 378.63 1579.09 397.95C1581.31 399.49 1583.81 400.64 1586.18 401.95L1587.37 400.95C1586.99 399.34 1586.93 397.55 1586.15 396.16C1584.54 393.249 1582.69 390.47 1580.64 387.85C1568.95 373.1 1556.78 358.72 1545.51 343.66C1533.44 327.55 1520.83 311.61 1510.96 294.17C1499.19 273.4 1490.24 251.04 1479.75 229.53C1475.53 220.9 1470.68 212.53 1465.69 204.34C1461.55 197.54 1456.95 190.61 1458.69 182.52C1461.95 167.62 1456.55 154.62 1451.31 141.52C1447.48 132.254 1441.63 123.961 1434.18 117.25C1429.91 113.052 1425.87 108.632 1422.07 104.01C1421.07 102.82 1420.54 101.17 1419.79 99.74L1420.9 98.95C1422.68 100.37 1424.43 101.82 1426.23 103.2C1429.79 105.91 1433.09 109.13 1437.01 111.2C1454.66 120.606 1471.06 132.186 1485.83 145.67C1504.51 162.48 1522.91 179.61 1541.83 196.09C1566.12 217.2 1589.76 238.93 1610.94 263.23C1632.86 288.38 1655.53 312.71 1682.3 332.95C1713 356.149 1738.14 385.897 1755.9 420.03C1761.25 430.19 1767.1 440.09 1773.11 449.87C1787.22 472.87 1805.76 492.31 1823.91 512.08C1847.79 538.08 1871.66 564.08 1894.79 590.79C1904 601.31 1911 613.55 1919 625V730C1916.3 727.28 1913.51 724.65 1910.92 721.83C1862.69 669.2 1817.48 614.16 1777.42 554.98C1762.09 532.34 1749.37 508.6 1743.48 481.57C1737.96 455.238 1723.63 431.571 1702.87 414.46C1698.77 410.817 1695.02 406.8 1691.66 402.46C1673.92 380.61 1657.09 357.97 1638.51 336.87C1595.48 287.953 1549.71 241.506 1501.44 197.75C1500.85 197.283 1500.17 196.952 1499.44 196.779C1498.71 196.606 1497.95 196.596 1497.22 196.75C1496.42 197 1495.88 199.13 1495.85 200.44C1495.91 201.937 1496.24 203.41 1496.85 204.78C1506.44 230.04 1517.85 254.42 1532.28 277.32C1554.39 312.4 1581.81 343.39 1607.81 375.44C1630.92 403.92 1652.08 433.25 1665.33 467.87C1677.94 500.81 1690.74 533.72 1704.99 565.97C1721.47 603.25 1739.47 639.88 1757.11 676.64C1765.18 693.72 1776.23 709.225 1789.74 722.43C1813.54 745.43 1838.01 767.83 1862.51 790.13C1881.09 807.03 1900.15 823.41 1919 840.02V929.02C1913 921.51 1907.62 913.31 1900.8 906.61C1877.6 883.83 1858.92 857.47 1840.54 830.96C1826.54 810.516 1811.14 791.066 1794.45 772.75C1788.53 766.33 1781.8 760.67 1775.45 754.67L1773.95 755.74C1776.73 760.19 1779.03 765.04 1782.36 769.03C1797.77 787.51 1810.88 807.55 1822.58 828.48C1841.52 862.37 1863.67 893.74 1891.41 921.15C1898.63 928.28 1903.81 937.53 1909.68 945.98C1913.04 950.82 1915.92 955.98 1919.01 960.98V1079.98L1884 1080Z" fill="#F3F1E9"/>
<path d="M729.62 0C732.19 11.47 734.97 22.9 737.3 34.42C741.99 57.55 745.84 80.86 751.13 103.84C758.32 135.03 772.13 163.84 786.04 192.4C798.04 216.91 810.82 241.04 824.04 264.93C837.68 289.66 849.27 315.17 857.61 342.18C866.54 371.1 877.3 399.56 884.41 428.91C894.62 471.08 903.16 513.71 910.65 556.45C915.24 582.63 919.72 608.45 931.51 632.6C936.77 643.37 941.59 654.35 946.44 665.31C962.658 701.687 973.117 740.367 977.44 779.96C978.94 793.89 981.07 807.6 977.31 821.54C973.31 836.32 964.44 841.54 949.66 837.36C940.5 834.78 932.66 830.02 927.09 822.53C919.19 811.87 912.09 800.53 904.79 789.53C900.93 783.71 897.21 777.8 893.44 771.91C889.67 766.02 885.44 760.02 881.94 753.8C862.44 719.133 843.023 684.433 823.69 649.7C823.439 649.268 823.085 648.906 822.659 648.646C822.233 648.385 821.749 648.236 821.25 648.21C821.95 652.7 822.91 657.21 823.25 661.68C824.93 681.58 827.54 701.47 827.78 721.39C828.26 759.94 840.04 795.1 857.92 828.39C880.19 869.91 903.34 910.95 926.12 952.2C933.644 965.771 943.164 978.136 954.36 988.88C980.36 1013.99 1001.42 1043.28 1024.44 1070.88C1026.88 1073.82 1029.11 1076.94 1031.44 1079.97H956.44C955.25 1078.61 954.11 1077.19 952.85 1075.89C944.85 1067.62 936.44 1059.74 928.92 1051.08C910.7 1030.08 898.92 1005.24 887.79 980.08C880.65 963.96 873.41 947.84 865.17 932.27C850.3 904.17 835.33 876.19 822.24 847.15C805.44 809.89 797.6 771.06 796.77 730.5C796.42 713.36 797.43 696.03 795.19 679.14C791.29 649.73 788.48 620.33 787.5 590.68C786.7 566.46 782.09 542.88 774.89 519.68C766.73 493.32 759.17 466.73 752.66 439.92C748.2 421.58 742.35 404.36 731.24 388.82C722.693 376.707 714.904 364.076 707.92 351C696.704 330.392 683.447 310.961 668.35 293C634.61 252.61 609.14 207.64 596.84 156.1C588.14 119.63 571.15 87.9 547.09 59.4C530.77 40 515.49 19.81 499.74 0H571.74C572.84 1.59 573.82 3.28 575.06 4.76C588.6 21 602.83 36.76 615.6 53.54C631.35 74.3 640.95 98.49 649.43 122.87C659.79 152.63 674.73 180.06 690.32 207.15C704.26 231.39 719.38 254.94 734.03 278.76C746.32 298.76 756.23 319.7 761.22 342.76C763.93 355.28 766.14 368 770.14 380.11C789.14 437.78 807.14 495.78 822.63 554.52C828.14 575.37 832.74 596.58 843.39 615.79C848.495 625.135 853.092 634.749 857.16 644.59C873.757 684.037 894.454 721.63 918.91 756.75C925.68 766.49 933.28 775.61 943.41 782.12C945.487 783.448 947.847 784.267 950.3 784.51C954.5 784.86 956.43 782.51 955.68 778.26C953.95 768.44 952.33 758.59 950.19 748.86C943.38 717.86 932.54 688.21 919.28 659.42C910.28 639.79 899.55 620.78 894.17 599.68C889.95 583.1 887.17 566.15 883.04 549.54C876.58 523.54 868.04 497.99 863.04 471.75C853.41 421.63 836.63 373.75 819.37 326.08C806.82 291.38 786.37 260.49 767.56 228.91C767.296 228.486 767.002 228.082 766.68 227.7C739.5 194.21 723.15 155.06 708.32 115.19C702.73 100.19 700.22 84.4 704.32 68.58C710 46.05 713.48 23.34 711.63 0H729.62Z" fill="#F3F1E9"/>
<path d="M728.62 1080C723.81 1070.15 718.62 1060.49 714.3 1050.41C706.54 1032.12 694.37 1017.01 680.69 1003.11C668.32 990.54 655.2 978.71 642.33 966.65C640.234 964.497 637.798 962.703 635.12 961.34C616.37 953 602 938.49 585.93 926.49C565.63 911.36 545.62 895.85 525.41 880.61C511.87 870.4 496.66 863.2 481.08 856.81C417.91 830.89 371.44 786.36 338.73 727.27C322.22 697.44 307.36 666.68 292.52 635.96C280.75 611.58 273.63 585.64 269.02 558.9C265.522 539.382 259.312 520.448 250.57 502.65C243.85 488.71 237.577 474.557 231.75 460.19C221.31 434.45 207.62 410.51 192.75 387.19C190.08 383.01 188.36 378.19 185.75 373.99C175.75 357.69 166.06 341.18 155.32 325.37C144.94 310.09 132.98 295.89 122.52 280.65C109 261 96.55 240.71 83.29 220.94C77.29 211.94 70.1 203.77 63.99 194.84C57.24 184.96 51.21 174.59 44.69 164.54C36.69 152.14 28.43 139.85 20.28 127.54C17.58 123.46 14.86 119.39 12.16 115.31L13.53 113.96C15.42 115.53 17.53 116.86 19.14 118.7C33.77 135.99 48.05 153.57 62.94 170.61C70.1548 178.873 77.955 186.607 86.28 193.75C106.53 211.08 127.35 227.75 145.52 247.35C147.774 249.574 149.838 251.982 151.69 254.55C163.06 272.02 178.09 286.28 192.38 301.16C223.09 333.11 254.02 364.84 284.76 396.76C304.97 417.76 325.16 438.76 345.07 460.04C355.88 471.59 366.64 483.26 376.42 495.67C401.19 527.08 430.5 552.97 465.56 572.39C479.82 580.28 493.56 589.12 507.56 597.39C523.48 606.83 534.32 621.21 544.98 635.75C556.19 651.02 564.05 668.11 571.39 685.46C578 701.09 587.58 714.82 597.97 728.16C609.62 743.16 620.6 758.61 631.81 773.92C640.17 785.34 648.75 796.61 656.66 808.34C669.194 826.842 679.265 846.897 686.62 868C689.35 875.85 692.81 883.43 695.87 891.16C696.56 892.89 696.95 894.74 697.48 896.53L696.22 897.08C695.168 895.509 694.2 893.884 693.32 892.21C679.93 863.21 661.71 837.62 639.24 814.82C608.24 783.39 577.89 751.37 547.24 719.57C544.13 716.33 541.12 712.97 538.24 709.5C520.89 688.5 500.76 670.83 477.07 657.15C462.678 648.657 449.76 637.883 438.82 625.25C419.1 602.94 398.08 581.74 381.55 556.67C371.401 541.022 360.353 525.977 348.46 511.61C335.026 495.501 320.69 480.166 305.52 465.68C274.185 435.984 245.986 403.145 221.37 367.68C215.24 358.85 207.95 350.82 201.2 342.42L200.14 343.14C200.489 343.939 200.896 344.711 201.36 345.45C231.59 386.45 254.42 431.45 274.15 478.29C283.62 500.76 294.25 523.12 307.33 543.63C329.59 578.41 359 607.16 391 633.05C401.89 641.84 413 650.42 424 659.05C443.089 673.739 459.017 692.13 470.83 713.12C499.83 764.93 540.89 805.88 585.96 843.4C604.28 858.66 622.43 874.24 637.05 893.2C653.92 915.09 670.88 937 686.15 960C699.15 979.49 709.47 1000.69 721.42 1020.88C732.25 1039.2 743.67 1057.18 754.83 1075.31C755.83 1076.86 756.67 1078.46 757.59 1080.03L728.62 1080ZM558.76 868.22L560.21 866.82C559.04 864.06 558.45 860.82 556.59 858.64C546.35 846.64 536.24 834.52 525.27 823.23C508.15 805.61 488.32 791.29 467.93 777.62C434.72 755.35 403.93 730.25 380.38 697.34C371.95 685.56 363.07 674.1 354.23 662.62C352.066 659.901 349.585 657.45 346.84 655.32C346.03 654.67 343.9 655.01 342.84 655.65C342.28 655.99 342.33 658.1 342.73 659.19C345.05 665.56 347.55 671.88 350 678.19C359.838 703.921 373.924 727.82 391.67 748.89C407.79 767.89 428.51 781.57 449.23 794.89C462.36 803.32 476.81 809.65 490.28 817.58C508.94 828.58 527.13 840.29 541.43 857.05C543.785 859.865 546.529 862.33 549.58 864.37C552.3 866.15 555.67 867 558.76 868.22Z" fill="#F3F1E9"/>
<path d="M0 262C13.61 282.52 30.1 300.46 48.16 317.15C75.21 342.15 96.03 372.05 114.4 403.74C123.59 419.58 132.92 435.36 141.53 451.52C153.09 473.24 159.53 496.93 166.65 520.32C177.36 555.32 187.87 590.38 199.26 625.15C210.65 659.92 230.14 690.48 250.65 720.15C267.65 744.79 286.91 767.88 305.11 791.69C318.21 808.84 333.78 823.06 352.67 833.69C380.98 849.69 405.67 870.57 429.47 892.49C468.54 928.49 507.27 964.89 546.18 1001.07C567.67 1021.07 585.48 1044.07 601.45 1068.55C603.8 1072.16 605.62 1076.12 607.68 1079.91H566.68C566.294 1078.86 565.791 1077.85 565.18 1076.91C543.32 1050.54 519.78 1025.91 492.18 1005.37C459.94 981.37 428.52 956.43 400.72 927.25C388 914 375.39 900.43 362.67 887C361.201 885.587 359.658 884.252 358.05 883L357.05 883.89C357.666 885.342 358.419 886.732 359.3 888.04C367.83 898.66 376.23 909.39 385.09 919.72C393.43 929.44 403.43 937.93 410.68 948.36C424.34 968.03 437.03 988.41 449.2 1009.04C459.49 1026.48 471.33 1042.21 487.63 1054.47C498.54 1062.68 509.03 1071.47 519.7 1079.95H450.7C450.529 1079.33 450.262 1078.75 449.91 1078.21C437.497 1064.73 425.077 1051.26 412.65 1037.8C406.92 1031.55 400.79 1025.57 395.73 1018.8C375.29 991.46 359.94 961.12 345.11 930.56C339.4 918.7 333 907.37 324.91 896.9C304.02 869.9 283.39 842.72 262.48 815.73C248.1 797.18 232.86 779.27 219.12 760.26C208.71 745.86 200.5 729.89 190.53 715.15C175.6 693.08 160 671.46 144.66 649.7C140.66 643.99 137 637.82 132.11 632.94C119.05 619.88 105.68 607.11 91.94 594.78C73.11 577.87 53.35 561.98 34.94 544.68C22.45 533 11.58 519.62 0 507V420C3.19 424.26 6.49 428.44 9.55 432.79C32.513 465.442 61.3012 493.58 94.47 515.79C96.06 516.87 97.7 517.86 100.09 519.39C100.09 516.97 100.23 515.52 100.09 514.1C97.42 490.69 92.63 467.75 83.25 446.1C76.46 430.38 68.95 414.96 61.63 399.47C57.73 391.22 54.3 382.6 49.33 375.01C38.84 359.01 27.73 343.42 16.33 328.01C11.56 321.48 5.49 316 0 310V262Z" fill="#F3F1E9"/>
<path d="M1250.35 1080C1247.29 1067.25 1244.28 1054.48 1241.17 1041.74C1229.17 992.8 1216.56 944.01 1205.43 894.88C1199.43 868.26 1194.75 841.33 1184.62 815.88C1174.96 791.62 1164.2 767.79 1154.62 743.51C1147.05 724.827 1142.26 705.139 1140.38 685.07C1139.38 673.6 1135 662.46 1132.87 651.07C1129.87 634.73 1127.45 618.27 1124.76 601.87C1124.54 599.718 1124.1 597.593 1123.45 595.53C1113.73 570.32 1110.97 543.53 1105.62 517.35C1103.88 508.402 1101.32 499.634 1097.96 491.16C1085.25 460.361 1070.16 430.603 1052.81 402.16C1046.84 392.539 1041.46 382.567 1036.69 372.3C1023.16 342.3 1004.78 315.03 988.41 286.64C957.8 233.55 932.19 178.18 913.41 119.81C904.53 92.13 897.05 63.94 894.07 34.87C892.9 23.3 893 11.62 892.53 0H908.53C906.66 16 910.19 31.45 913.82 46.83C920.72 76.09 931.26 104.09 943.98 131.27C954.78 154.34 966.21 177.11 976.65 200.34C987.58 224.69 1002.81 246.34 1018.09 267.9C1025.76 278.72 1034.65 288.77 1043.67 298.53C1065.78 322.46 1084.25 348.43 1095.94 379.28C1102.94 397.74 1112.69 415.15 1121.11 433.07C1131.77 455.72 1137.72 479.72 1140.89 504.43C1141.56 509.69 1140.66 515.13 1141.21 520.43C1142.87 536.29 1144.21 552.22 1146.9 567.92C1150.28 587.97 1159.72 605.84 1170.9 622.4C1197.57 661.86 1224.44 701.2 1252.43 739.72C1267.18 760.02 1284.68 778.31 1300.52 797.85C1320.19 822.11 1337.39 847.99 1350.39 876.55C1357.79 892.8 1361.87 909.86 1363.87 927.48C1366.11 947.23 1373.14 965.48 1383.48 982.04C1401.17 1010.29 1414.91 1040.83 1424.33 1072.8C1425.03 1075.19 1425.61 1077.61 1426.25 1080.02H1385.25C1384.43 1077.54 1383.8 1075.02 1382.77 1072.6C1369.77 1042.5 1356.17 1012.65 1347.91 980.74C1342.24 958.86 1337.34 936.74 1330.27 915.28C1321.67 889.28 1312.27 863.28 1295.13 841.17C1284.32 827.223 1273.4 813.36 1262.37 799.58C1244.43 777.05 1225.83 755.03 1208.66 731.93C1197.93 717.5 1188.17 702.38 1175.66 689.34C1174.75 688.34 1173.78 687.48 1172.32 686.04C1171.15 695.682 1172.51 705.461 1176.26 714.42C1188.09 742.48 1199.56 770.72 1212.43 798.29C1223.37 821.72 1233.5 845.29 1240.43 870.29C1245.55 888.72 1250.43 907.29 1256.73 925.29C1268.07 957.44 1280.79 989.09 1292.28 1021.18C1299.28 1040.58 1304.97 1060.41 1311.28 1080.04L1250.35 1080Z" fill="#F3F1E9"/>
<path d="M836.56 0C845.01 52.29 855.28 104.15 873.26 154.17C878.73 169.39 884.95 184.25 893.85 197.89C904.388 214.127 911.949 232.111 916.18 251C922.11 277 934.25 300.51 950.53 320.84C969.95 345.1 985.61 371.4 1000.84 398.17C1023.53 438.06 1040.36 480.17 1050.45 525.06C1058.6 561.39 1072.97 595.78 1087.09 630.06C1098.13 657.025 1105.85 685.232 1110.09 714.06C1118.99 773.23 1136.88 829.98 1156.94 886.06C1165.94 911.24 1177.08 935.67 1187.14 960.48C1189.46 966.054 1191.11 971.88 1192.07 977.84C1191.47 977.093 1190.93 976.308 1190.43 975.49C1176.57 948.38 1163.67 920.78 1147.54 894.83C1136.22 876.61 1129.82 856.08 1123.79 835.69C1111.79 795.01 1098.33 754.85 1084.4 714.79C1076.04 690.79 1069.55 666.07 1058.46 643.06C1054.72 635.29 1049.82 628.06 1045.69 620.5C1032.93 597.08 1021.21 573.19 1012.13 548.05C1003.55 524.529 991.635 502.362 976.75 482.23C953.91 451.06 938.57 416.48 928.63 379.23C925.786 368.803 921.906 358.686 917.05 349.03C905.77 326.4 893.71 304.15 881.91 281.77C871.18 261.42 861.4 240.66 854.32 218.71C843.523 185.56 827.952 154.16 808.1 125.5C788.35 96.71 778.34 64.77 775.74 30.19C775 20.15 773.67 10.08 772.6 0H836.56Z" fill="#F3F1E9"/>
<path d="M1127.41 0C1128.69 2.47137 1130.11 4.86249 1131.68 7.16C1141.6 20.16 1150.68 33.87 1161.83 45.69C1185.62 70.91 1204.66 99.38 1220.64 129.79C1240 166.64 1264.19 199.51 1294.64 227.79C1311.23 243.18 1324.11 261.64 1338.24 279.1C1355.1 299.94 1372.52 320.33 1389.84 340.8C1397.58 349.94 1407.7 356.07 1417.64 362.55C1443.14 379.18 1469.32 395.08 1490.56 417.33C1509.64 437.33 1529.03 457.1 1546.71 478.33C1560.41 494.76 1572.38 512.79 1583.87 530.9C1600.46 557.02 1616.93 583.3 1631.48 610.57C1640.82 628.07 1646.54 647.5 1654.01 666.01C1661.59 684.83 1668.45 704.01 1677.24 722.27C1686.98 742.48 1698.58 761.79 1709.33 781.52C1712.23 786.85 1714.96 792.27 1717.77 797.64L1716.29 798.54C1713.5 794.54 1710.54 790.62 1707.95 786.48C1686.65 752.29 1665.15 718.22 1646.26 682.6C1634.18 659.81 1622.43 636.84 1610.1 614.19C1605.42 605.383 1600 596.996 1593.88 589.12C1574.88 565.26 1556.08 541.24 1535.95 518.38C1509.15 487.98 1479.47 460.38 1448.58 434.16C1420.37 410.22 1393.18 385.45 1368.46 357.68C1324.07 307.82 1274.64 263.11 1222.19 221.78C1202.57 206.32 1183.35 190.32 1163.42 175.27C1136.98 155.27 1117.06 130.59 1104.68 99.76C1094.68 74.89 1084.01 50.31 1074.44 25.3C1071.44 17.4 1071.02 8.51 1069.44 0.0700001L1127.41 0Z" fill="#F3F1E9"/>
<path d="M1136.41 1080C1136.5 1079.36 1136.47 1078.71 1136.33 1078.08C1122.64 1047.93 1114.4 1016.08 1106.03 984.15C1100.93 964.76 1093.03 946.44 1083.76 928.67C1070.47 903.28 1062.67 875.91 1055.76 848.27C1055.11 845.7 1054.64 842.99 1053.44 840.68C1041.53 817.68 1032.26 793.68 1023.93 769.2C1019.93 757.42 1014.51 746.1 1009.45 734.7C1001.68 717.21 994.09 699.62 985.66 682.44C973.25 657.16 968.61 630.17 965.66 602.52C960.89 557.52 955.18 512.57 937.66 470.25C932.82 458.59 927.5 447.1 921.89 435.78C914.14 420.11 910.26 403.26 905.95 386.52C905.823 385.27 905.823 384.01 905.95 382.76C906.84 383.76 907.38 384.16 907.57 384.67C918.08 413.05 933.46 438.97 947.88 465.41C968.879 503.544 983.253 544.966 990.39 587.91C992.11 598.41 993.78 608.99 996.63 619.22C1000.46 632.95 1004.46 646.78 1010.1 659.83C1022.1 687.62 1035.78 714.72 1047.78 742.53C1055.87 761.29 1061.32 781.22 1069.64 799.87C1087.32 839.48 1108.21 877.38 1134.33 912.2C1149.89 932.94 1159.76 956.57 1169.33 980.42C1181.9 1011.65 1192.33 1043.56 1201.86 1075.82C1202.28 1077.25 1202.92 1078.61 1203.45 1080H1136.41Z" fill="#F3F1E9"/>
<path d="M1555.19 0C1563.98 18.34 1577.96 32.39 1593.64 44.63C1608.32 56.1 1623.79 66.55 1639.09 77.2C1667.24 96.78 1695.88 115.69 1723.61 135.84C1740.27 147.95 1755.85 161.6 1771.5 175.04C1821.5 217.94 1867.95 264.52 1914.82 310.69C1916.15 311.87 1917.55 312.975 1919 314V450C1918.39 449.021 1917.85 447.998 1917.39 446.94C1911.11 428.83 1900.5 413.49 1887.6 399.51C1864.67 374.663 1841.83 349.737 1819.07 324.73C1791.01 293.85 1766.47 260.18 1742.48 226.15C1720.09 194.42 1698 162.5 1670.48 134.93C1660.96 125.41 1650.48 116.81 1640.48 107.79C1623.49 92.51 1606.54 77.2467 1589.61 62C1577.15 50.81 1565.97 38.64 1557.67 23.9C1553 15.61 1547.39 7.93 1542.2 0H1555.19Z" fill="#F3F1E9"/>
<path d="M1011.47 0C1014.34 8.48 1017.89 16.8 1019.97 25.48C1026.66 53.48 1032.97 81.48 1039.12 109.59C1045.13 137.748 1053.84 165.261 1065.12 191.75C1076.49 218.15 1086.12 245.31 1097.2 271.82C1103.81 287.58 1110.2 303.82 1119.59 317.95C1141.91 351.73 1157.49 388.51 1172.36 425.83C1187.01 462.57 1195.86 501.03 1207.36 538.7C1217.08 570.45 1229.13 601.51 1240.55 632.7C1245.99 647.6 1255.93 659.77 1265.81 672.01C1287.83 699.245 1306.32 729.144 1320.87 761C1321.41 762.096 1321.58 763.342 1321.33 764.54C1314.1 753.88 1306.52 743.44 1299.71 732.54C1286.61 711.54 1271.82 691.98 1254.4 674.39C1250.66 670.595 1247.31 666.435 1244.4 661.97C1230.04 639.97 1216.4 617.48 1206.4 592.97C1196.4 568.46 1185.4 544.44 1175.35 519.97C1156.9 474.85 1139.47 429.3 1120.35 384.47C1113.29 367.91 1103.48 352.33 1093.46 337.28C1078.03 314.09 1066.1 289.41 1056.46 263.36C1045.31 233.25 1034.11 203.03 1017.12 175.56C998.74 145.82 984.88 114.15 977.6 80.05C971.83 53.05 965.54 26.2 956.49 0.05L1011.47 0Z" fill="#F3F1E9"/>
<path d="M1447.25 0C1453.46 5.77 1460.05 11.21 1465.82 17.4C1475.66 27.97 1486.44 38.07 1494.26 50.04C1513.26 79.2 1537.4 103.32 1564.37 124.76C1582.87 139.47 1602.22 153.12 1620.8 167.76C1638.28 181.396 1654.1 197.032 1667.94 214.35C1688.25 239.89 1710.07 264.23 1730.22 289.9C1749.95 315.04 1773.83 336.15 1795.09 359.75C1821.86 389.45 1846.71 420.62 1866.14 455.95C1876.87 475.44 1889.95 493.63 1901.99 512.39C1905.06 517.18 1908.2 521.93 1911.31 526.69L1909.31 528.35C1907.72 526.35 1906.04 524.5 1904.56 522.46C1884.4 494.55 1862.12 468.27 1843.05 439.46C1830.93 421.15 1815.89 404.46 1800.54 388.68C1780.97 368.53 1759.18 350.55 1739.43 330.56C1713.22 304.04 1688.36 276.18 1662.34 249.46C1638.28 224.74 1613.23 200.89 1585.27 180.64C1561.43 163.39 1536.18 148.09 1511.81 131.56C1486.74 114.56 1462 97.1 1437.07 79.9C1420.78 68.66 1403.79 58.32 1388.26 46.1C1372.16 33.44 1357.67 18.81 1348.26 0.1L1447.25 0Z" fill="#F3F1E9"/>
<path d="M387.8 1080C384.15 1075.39 380.93 1070.36 376.8 1066.25C353.67 1043.25 330.01 1020.81 307.13 997.59C279.65 969.71 258.03 937.12 236.13 904.94C209.51 865.78 176.38 833.63 137.55 807.03C120.581 795.581 104.563 782.783 89.65 768.76C78.65 758.24 66.15 749.21 54.05 739.88C36.17 726.08 18 712.61 0 699V609C4.92 615.08 9.93 621.08 14.73 627.25C27.8589 644.078 43.2979 658.968 60.59 671.48C80.7381 686.243 99.7882 702.449 117.59 719.97C133.4 735.46 150.13 749.97 166.25 765.18C182.84 780.81 196.3 798.87 208.16 818.34C219.59 837.09 232.64 854.86 243.91 873.7C256.12 894.09 267.58 914.98 278.49 936.1C290.39 959.1 304.21 980.75 321.05 1000.49C340.51 1023.3 360.49 1045.6 382.21 1066.32C386.51 1070.41 389.95 1075.42 393.78 1080H387.8Z" fill="#F3F1E9"/>
<path d="M0 764C24.25 790.29 53.37 811.24 79.06 835.86C116.41 871.66 155.82 905.55 187.98 946.49C206.78 970.42 222.17 996.49 235.84 1023.6C245.36 1042.48 255.18 1061.21 264.84 1080H240.84C239.92 1078.08 238.86 1076.22 237.67 1074.45C225.31 1058.33 212.9 1042.24 200.44 1026.19C190.54 1013.44 180.49 1000.79 170.63 988C162.81 977.85 156.39 966.29 147.23 957.57C122.23 933.77 95.46 912.14 65.42 894.75C48.72 885.09 32.57 874.48 16.32 864.06C10.66 860.41 5.44 856 0 852V764Z" fill="#F3F1E9"/>
<path d="M0 910C7.05 916.78 14.81 923 21 930.45C39 952.15 60.22 970.31 82.57 987.09C107.84 1006.09 134.32 1023.43 159.39 1042.65C174.11 1053.94 187.11 1067.47 200.88 1080H84C83 1078.15 82.12 1076.2 81 1074.46C76.56 1067.83 71.65 1061.46 67.59 1054.63C53.52 1030.89 40.2 1006.69 25.65 983.26C18.08 971.2 8.59 960.38 0 949V910Z" fill="#F3F1E9"/>
<path d="M1061.45 1080C1061.14 1078.91 1060.77 1077.84 1060.35 1076.79C1050.83 1056.27 1040.77 1035.98 1031.88 1015.19C1020.64 988.9 1005.56 965.75 983.88 946.71C974.094 937.936 965.255 928.159 957.51 917.54C943.51 898.69 930.51 879.13 917.45 859.63C913.59 853.87 910.8 847.36 907.74 841.09C901.56 828.377 895.467 815.627 889.46 802.84C887.897 799.71 886.917 796.321 886.57 792.84C887.128 793.278 887.64 793.77 888.1 794.31C898.66 809.64 908.81 825.31 919.82 840.31C941.24 869.49 967.18 894.52 995.44 916.78C1021.1 937 1041.44 961.47 1059.61 988.12C1066.27 997.88 1073.08 1007.56 1080.3 1016.91C1092.56 1032.78 1103.52 1049.41 1112.07 1067.6C1114.07 1071.81 1116.29 1075.91 1118.41 1080.06L1061.45 1080Z" fill="#F3F1E9"/>
<path d="M1721.1 -2.93255e-05C1727.63 8.37997 1734.25 16.68 1740.67 25.14C1765.13 57.35 1788.75 90.25 1814.23 121.63C1832.02 143.55 1852.41 163.36 1871.47 184.26C1877.85 191.26 1883.75 198.67 1889.76 205.97C1890.91 207.495 1891.64 209.3 1891.86 211.2C1889.07 209.03 1886.39 206.69 1883.47 204.7C1865.86 192.7 1848.04 181.08 1830.59 168.88C1810.95 155.16 1791.39 141.29 1772.23 126.88C1750.65 110.69 1733.67 89.8 1715.61 69.98C1694.43 46.73 1672.61 24.08 1651.01 1.16997C1650.7 0.786684 1650.41 0.386045 1650.14 -0.0300293L1721.1 -2.93255e-05Z" fill="#F3F1E9"/>
<path d="M27 0C42.12 25.45 57.86 50.57 72.17 76.48C80.94 92.33 88.72 108.74 99.27 123.53C110.48 139.24 122.48 154.38 133.38 170.3C145.6 188.13 156.86 206.62 168.74 224.69C174.13 232.88 179.74 240.93 185.74 248.69C196.52 262.82 207.62 276.69 217.89 291.6C216.677 290.782 215.53 289.869 214.46 288.87C187.59 259.76 159.37 231.87 135.32 200.24C125.87 187.81 116.47 175.24 105.91 163.76C90.91 147.5 75.2 132.05 56.6 119.58C37.6 106.82 17.76 94.94 1.34 78.58C0.928842 78.3132 0.475912 78.1172 0 78V0H27Z" fill="#F3F1E9"/>
<path d="M1919 186C1910 168.58 1901.94 150.58 1891.77 133.87C1863.77 87.81 1835.01 42.16 1796.77 3.54C1795.79 2.4235 1794.88 1.24071 1794.06 0H1862.06C1862.96 1.18 1863.78 2.42 1864.76 3.52C1878.13 18.52 1891.54 33.4 1904.87 48.4C1909.7 53.84 1914.32 59.46 1919.03 65L1919 186Z" fill="#F3F1E9"/>
<path d="M1919 810C1912.3 801.94 1905.82 793.69 1898.85 785.87C1888.68 774.45 1878.67 762.87 1867.68 752.22C1844.02 729.39 1821.1 705.83 1801.46 679.49C1783.95 656 1768.71 630.93 1758.38 603.2C1756.53 598.2 1753.77 593.61 1751.44 588.82C1750.44 586.68 1749.36 584.53 1748.33 582.38L1749.58 581.73C1750.95 584.08 1752.21 586.5 1753.7 588.73C1770.44 614.34 1784.95 641.63 1807.29 663.1C1820.29 675.55 1834.22 686.92 1847.65 698.88C1870.89 719.6 1894.1 740.353 1917.28 761.14C1917.81 761.491 1918.39 761.764 1919 761.95V810Z" fill="#F3F1E9"/>
<path d="M665.65 1080C663.88 1076.71 662.76 1072.77 660.24 1070.23C632.42 1042.29 604.24 1014.73 576.48 986.69C564.48 974.53 553.48 961.33 541.65 948.93C532.26 939.07 522.38 929.67 512.65 920.15C509.02 916.6 505.16 913.28 501.41 909.86C501.8 909.42 502.19 908.97 502.59 908.53C506.08 910.94 509.69 913.22 513.05 915.81C518.32 919.87 523.54 924 528.58 928.35C555.66 951.69 586.19 970.17 615.94 989.67C640.217 1005.35 660.272 1026.75 674.34 1051.99C679.7 1061.56 685.86 1070.68 691.65 1079.99L665.65 1080Z" fill="#F3F1E9"/>
<path d="M1339.3 1080C1331.6 1059.81 1323.56 1039.74 1316.3 1019.39C1312.53 1008.77 1310.3 997.61 1307.13 986.79C1301.92 969.27 1295.53 952.04 1291.33 934.29C1286.33 913.09 1281.43 891.93 1273.75 871.5C1273.56 870.948 1273.52 870.359 1273.61 869.784C1273.71 869.21 1273.95 868.669 1274.31 868.21C1276.17 871.42 1278.47 874.46 1279.81 877.87C1285.52 892.4 1292.12 906.71 1296.21 921.7C1302.9 946.25 1314.29 968.44 1326.86 990.2C1331.11 997.55 1336.11 1004.49 1339.95 1012.03C1345.45 1022.8 1350.52 1033.77 1355.17 1044.96C1359.94 1056.47 1363.93 1068.31 1368.27 1079.96L1339.3 1080Z" fill="#F3F1E9"/>
<path d="M316.83 1080C315.14 1078 313.68 1075.76 311.73 1074.08C286.45 1052.25 266.73 1026.18 250.88 996.82C238.65 974.14 225.37 952.03 212.58 929.66C211.691 928.253 211.238 926.614 211.28 924.95C216.73 932.25 222.93 939.12 227.47 946.95C235.64 960.95 246.17 972.68 258.47 983.12C287.52 1007.73 313.84 1035.12 338.3 1064.23C342.3 1069.04 345.3 1074.72 348.8 1080H316.83Z" fill="#F3F1E9"/>
<path d="M0 1024C8.5 1036.22 16.86 1048.54 25.57 1060.61C30.4 1067.3 35.82 1073.55 41 1080H0V1024Z" fill="#F3F1E9"/>
</g>
<path d="M-146 355C23.7401 399.336 328.278 553.213 188.509 814.03C48.7395 1074.85 1284.6 959.04 1920 868.534" stroke="#F3F1E9" stroke-width="3"/>
<path d="M1935.78 511.478C1844.22 390.452 1721.11 115.658 1961.17 -15.3074" stroke="#4E4036" stroke-width="3"/>
<circle cx="1817.01" cy="532.401" r="3.0089" transform="rotate(-90 1817.01 532.401)" fill="#F3F1E9"/>
<circle cx="1817.01" cy="488.27" r="3.0089" transform="rotate(-90 1817.01 488.27)" fill="#F3F1E9"/>
<circle cx="1817.01" cy="444.14" r="3.0089" transform="rotate(-90 1817.01 444.14)" fill="#F3F1E9"/>
<circle cx="1817.01" cy="400.009" r="3.0089" transform="rotate(-90 1817.01 400.009)" fill="#F3F1E9"/>
<circle cx="1861.14" cy="532.401" r="3.0089" transform="rotate(-90 1861.14 532.401)" fill="#F3F1E9"/>
<circle cx="1861.14" cy="488.27" r="3.0089" transform="rotate(-90 1861.14 488.27)" fill="#F3F1E9"/>
<circle cx="1861.14" cy="444.14" r="3.0089" transform="rotate(-90 1861.14 444.14)" fill="#F3F1E9"/>
<circle cx="1861.14" cy="400.009" r="3.0089" transform="rotate(-90 1861.14 400.009)" fill="#F3F1E9"/>
<circle cx="1905.27" cy="532.401" r="3.0089" transform="rotate(-90 1905.27 532.401)" fill="#F3F1E9"/>
<circle cx="1905.27" cy="488.27" r="3.0089" transform="rotate(-90 1905.27 488.27)" fill="#F3F1E9"/>
<circle cx="1905.27" cy="444.14" r="3.0089" transform="rotate(-90 1905.27 444.14)" fill="#F3F1E9"/>
<circle cx="1905.27" cy="400.009" r="3.0089" transform="rotate(-90 1905.27 400.009)" fill="#F3F1E9"/>
</g>
<defs>
<clipPath id="clip0_1_548">
<rect width="1920" height="1080" fill="white"/>
</clipPath>
<clipPath id="clip1_1_548">
<rect width="1919" height="1080" fill="white"/>
</clipPath>
</defs>
</svg>
