<svg width="133" height="43" viewBox="0 0 133 43" fill="none" xmlns="http://www.w3.org/2000/svg">
<path d="M15.9132 9.26652C17.3805 6.29385 21.6195 6.29385 23.0868 9.26652L25.5227 14.2014C26.1049 15.3807 27.2296 16.1986 28.531 16.3888L33.9849 17.186C37.2645 17.6653 38.5717 21.6967 36.1973 24.0093L32.2572 27.847C31.3137 28.766 30.883 30.0905 31.1057 31.3886L32.0347 36.8055C32.5952 40.0734 29.165 42.5652 26.2305 41.022L21.3618 38.4616C20.1963 37.8487 18.8037 37.8487 17.6382 38.4616L12.7695 41.022C9.83501 42.5652 6.40481 40.0734 6.96529 36.8055L7.89435 31.3886C8.11699 30.0905 7.68634 28.766 6.74284 27.847L2.80272 24.0093C0.428341 21.6967 1.73547 17.6653 5.01513 17.186L10.469 16.3888C11.7704 16.1986 12.8951 15.3807 13.4773 14.2014L15.9132 9.26652Z" fill="#BB7D0D" stroke="#BB7D0D" stroke-width="2" stroke-linecap="round" stroke-linejoin="round"/>
<path d="M27.5 29.5C58.3333 14.5 93.7 -11 132.5 7" stroke="#BB7D0D"/>
</svg>
