<svg width="168" height="261" viewBox="0 0 168 261" fill="none" xmlns="http://www.w3.org/2000/svg">
<path d="M144.913 3.26652C146.381 0.293851 150.619 0.293849 152.087 3.26652L154.523 8.20136C155.105 9.38075 156.23 10.1986 157.531 10.3888L162.985 11.186C166.265 11.6653 167.572 15.6967 165.197 18.0093L161.257 21.847C160.314 22.766 159.883 24.0905 160.106 25.3886L161.035 30.8055C161.595 34.0734 158.165 36.5652 155.23 35.022L150.362 32.4616C149.196 31.8487 147.804 31.8487 146.638 32.4616L141.77 35.022C138.835 36.5652 135.405 34.0734 135.965 30.8055L136.894 25.3886C137.117 24.0905 136.686 22.766 135.743 21.847L131.803 18.0093C129.428 15.6967 130.735 11.6653 134.015 11.186L139.469 10.3888C140.77 10.1986 141.895 9.38075 142.477 8.20136L144.913 3.26652Z" fill="#BB7D0D" stroke="#BB7D0D" stroke-width="2" stroke-linecap="round" stroke-linejoin="round"/>
<path d="M1 260C3 186 63 48.5 154.5 24.5" stroke="#BB7D0D"/>
</svg>
