<svg width="54" height="54" viewBox="0 0 54 54" fill="none" xmlns="http://www.w3.org/2000/svg">
<path d="M23.4132 11.7665C24.8805 8.79385 29.1195 8.79385 30.5868 11.7665L33.0227 16.7014C33.6049 17.8807 34.7296 18.6986 36.031 18.8888L41.4849 19.686C44.7645 20.1653 46.0717 24.1967 43.6973 26.5093L39.7572 30.347C38.8137 31.266 38.383 32.5905 38.6057 33.8886L39.5347 39.3055C40.0952 42.5734 36.665 45.0652 33.7305 43.522L28.8618 40.9616C27.6963 40.3487 26.3037 40.3487 25.1382 40.9616L20.2695 43.522C17.335 45.0652 13.9048 42.5734 14.4653 39.3055L15.3943 33.8886C15.617 32.5905 15.1863 31.266 14.2428 30.347L10.3027 26.5093C7.92834 24.1967 9.23547 20.1653 12.5151 19.686L17.969 18.8888C19.2704 18.6986 20.3951 17.8807 20.9773 16.7014L23.4132 11.7665Z" fill="#BB7D0D" stroke="#BB7D0D" stroke-width="2" stroke-linecap="round" stroke-linejoin="round"/>
</svg>
