<svg width="284" height="111" viewBox="0 0 284 111" fill="none" xmlns="http://www.w3.org/2000/svg">
<path d="M15.9132 77.2665C17.3805 74.2939 21.6195 74.2938 23.0868 77.2665L25.5227 82.2014C26.1049 83.3807 27.2296 84.1986 28.531 84.3888L33.9849 85.186C37.2645 85.6653 38.5717 89.6967 36.1973 92.0093L32.2572 95.847C31.3137 96.766 30.883 98.0905 31.1057 99.3886L32.0347 104.806C32.5952 108.073 29.165 110.565 26.2305 109.022L21.3618 106.462C20.1963 105.849 18.8037 105.849 17.6382 106.462L12.7695 109.022C9.83501 110.565 6.40481 108.073 6.96529 104.806L7.89435 99.3886C8.11699 98.0905 7.68634 96.766 6.74284 95.847L2.80272 92.0093C0.428341 89.6967 1.73547 85.6653 5.01513 85.186L10.469 84.3888C11.7704 84.1986 12.8951 83.3807 13.4773 82.2014L15.9132 77.2665Z" fill="#BB7D0D" stroke="#BB7D0D" stroke-width="2" stroke-linecap="round" stroke-linejoin="round"/>
<path d="M33 91C70.2103 67.2903 42.3583 21.4055 283 1" stroke="#BB7D0D"/>
</svg>
