<svg width="253" height="320" viewBox="0 0 253 320" fill="none" xmlns="http://www.w3.org/2000/svg">
<path d="M229.913 3.26652C231.381 0.293851 235.619 0.293849 237.087 3.26652L239.523 8.20136C240.105 9.38075 241.23 10.1986 242.531 10.3888L247.985 11.186C251.265 11.6653 252.572 15.6967 250.197 18.0093L246.257 21.847C245.314 22.766 244.883 24.0905 245.106 25.3886L246.035 30.8055C246.595 34.0734 243.165 36.5652 240.23 35.022L235.362 32.4616C234.196 31.8487 232.804 31.8487 231.638 32.4616L226.77 35.022C223.835 36.5652 220.405 34.0734 220.965 30.8055L221.894 25.3886C222.117 24.0905 221.686 22.766 220.743 21.847L216.803 18.0093C214.428 15.6967 215.735 11.6653 219.015 11.186L224.469 10.3888C225.77 10.1986 226.895 9.38075 227.477 8.20136L229.913 3.26652Z" fill="#BB7D0D" stroke="#BB7D0D" stroke-width="2" stroke-linecap="round" stroke-linejoin="round"/>
<path d="M1 319C10.8333 327.833 207.9 58.7 221.5 37.5" stroke="#BB7D0D"/>
</svg>
