<svg width="207" height="257" viewBox="0 0 207 257" fill="none" xmlns="http://www.w3.org/2000/svg">
<path d="M15.9132 3.26652C17.3805 0.293851 21.6195 0.293849 23.0868 3.26652L25.5227 8.20136C26.1049 9.38075 27.2296 10.1986 28.531 10.3888L33.9849 11.186C37.2645 11.6653 38.5717 15.6967 36.1973 18.0093L32.2572 21.847C31.3137 22.766 30.883 24.0905 31.1057 25.3886L32.0347 30.8055C32.5952 34.0734 29.165 36.5652 26.2305 35.022L21.3618 32.4616C20.1963 31.8487 18.8037 31.8487 17.6382 32.4616L12.7695 35.022C9.83501 36.5652 6.40481 34.0734 6.96529 30.8055L7.89435 25.3886C8.11699 24.0905 7.68634 22.766 6.74284 21.847L2.80272 18.0093C0.428341 15.6967 1.73547 11.6653 5.01513 11.186L10.469 10.3888C11.7704 10.1986 12.8951 9.38075 13.4773 8.20136L15.9132 3.26652Z" fill="#BB7D0D" stroke="#BB7D0D" stroke-width="2" stroke-linecap="round" stroke-linejoin="round"/>
<path d="M29 36C55.3449 93.957 35.6257 206.12 206 256" stroke="#BB7D0D"/>
</svg>
