<svg width="94" height="37" viewBox="0 0 94 37" fill="none" xmlns="http://www.w3.org/2000/svg">
<path d="M70.9132 3.26652C72.3805 0.293851 76.6195 0.293849 78.0868 3.26652L80.5227 8.20136C81.1049 9.38075 82.2296 10.1986 83.531 10.3888L88.9849 11.186C92.2645 11.6653 93.5717 15.6967 91.1973 18.0093L87.2572 21.847C86.3137 22.766 85.883 24.0905 86.1057 25.3886L87.0347 30.8055C87.5952 34.0734 84.165 36.5652 81.2305 35.022L76.3618 32.4616C75.1963 31.8487 73.8037 31.8487 72.6382 32.4616L67.7695 35.022C64.835 36.5652 61.4048 34.0734 61.9653 30.8055L62.8943 25.3886C63.117 24.0905 62.6863 22.766 61.7428 21.847L57.8027 18.0093C55.4283 15.6967 56.7355 11.6653 60.0151 11.186L65.469 10.3888C66.7704 10.1986 67.8951 9.38075 68.4773 8.20136L70.9132 3.26652Z" fill="#BB7D0D" stroke="#BB7D0D" stroke-width="2" stroke-linecap="round" stroke-linejoin="round"/>
<path d="M1 21C10.8333 29.8333 52.4 39.2 66 18" stroke="#BB7D0D"/>
</svg>
