<svg width="1920" height="1080" viewBox="0 0 1920 1080" fill="none" xmlns="http://www.w3.org/2000/svg">
<g clip-path="url(#clip0_1_455)">
<rect width="1920" height="1080" fill="#F3F1E9"/>
<path d="M-29 573C911.207 550.12 1007.56 181.467 938.213 0H-29V573Z" fill="#4E4036"/>
<path d="M1458.83 774.545C1340.07 850.436 1259.36 1004.99 1238 1080H1936L1947.85 231.475C1947.95 227.839 1948 224.181 1948 220.5L1947.85 231.475C1940.99 476.19 1704.85 617.335 1458.83 774.545Z" fill="#BB7D0D"/>
<circle cx="1787.01" cy="962.401" r="3.0089" transform="rotate(-90 1787.01 962.401)" fill="#F3F1E9"/>
<circle cx="1787.01" cy="918.27" r="3.0089" transform="rotate(-90 1787.01 918.27)" fill="#F3F1E9"/>
<circle cx="1787.01" cy="874.14" r="3.0089" transform="rotate(-90 1787.01 874.14)" fill="#F3F1E9"/>
<circle cx="1787.01" cy="830.009" r="3.0089" transform="rotate(-90 1787.01 830.009)" fill="#F3F1E9"/>
<circle cx="1831.14" cy="962.401" r="3.0089" transform="rotate(-90 1831.14 962.401)" fill="#F3F1E9"/>
<circle cx="1831.14" cy="918.27" r="3.0089" transform="rotate(-90 1831.14 918.27)" fill="#F3F1E9"/>
<circle cx="1831.14" cy="874.14" r="3.0089" transform="rotate(-90 1831.14 874.14)" fill="#F3F1E9"/>
<circle cx="1831.14" cy="830.009" r="3.0089" transform="rotate(-90 1831.14 830.009)" fill="#F3F1E9"/>
<circle cx="1875.27" cy="962.401" r="3.0089" transform="rotate(-90 1875.27 962.401)" fill="#F3F1E9"/>
<circle cx="1875.27" cy="918.27" r="3.0089" transform="rotate(-90 1875.27 918.27)" fill="#F3F1E9"/>
<circle cx="1875.27" cy="874.14" r="3.0089" transform="rotate(-90 1875.27 874.14)" fill="#F3F1E9"/>
<circle cx="1875.27" cy="830.009" r="3.0089" transform="rotate(-90 1875.27 830.009)" fill="#F3F1E9"/>
<circle cx="1919.4" cy="962.401" r="3.0089" transform="rotate(-90 1919.4 962.401)" fill="#F3F1E9"/>
<circle cx="1919.4" cy="918.27" r="3.0089" transform="rotate(-90 1919.4 918.27)" fill="#F3F1E9"/>
<circle cx="1919.4" cy="874.14" r="3.0089" transform="rotate(-90 1919.4 874.14)" fill="#F3F1E9"/>
<circle cx="1919.4" cy="830.009" r="3.0089" transform="rotate(-90 1919.4 830.009)" fill="#F3F1E9"/>
</g>
<defs>
<clipPath id="clip0_1_455">
<rect width="1920" height="1080" fill="white"/>
</clipPath>
</defs>
</svg>
